<?xml version="1.0" encoding="UTF-8" standalone="no"?>
<svg
   width="215"
   height="206"
   viewBox="0 0 215 206"
   fill="none"
   version="1.1"
   id="svg13"
   xmlns="http://www.w3.org/2000/svg"
   xmlns:svg="http://www.w3.org/2000/svg">
  <defs
     id="defs13" />
  <path
     d="m 213.28,102.577 c 0,10.8 -13.43,19.35 -16.6,29.09 -3.28,10.1 2.45,24.89 -3.67,33.3 -6.12,8.41 -22.06,7.58 -30.55,13.76 -8.49,6.18 -12.41,21.53 -22.52,24.81 -9.75,3.16 -22,-6.85 -32.8,-6.85 -10.8,0 -23.06,10 -32.8,6.85 -10.1,-3.28 -14.11,-18.69 -22.52,-24.81 -8.41,-6.12 -24.37,-5.27 -30.55,-13.76 -6.18,-8.49 -0.39,-23.2 -3.67,-33.3 C 14.44,121.917 1,113.377 1,102.577 1,91.7768 14.43,83.2268 17.6,73.4868 c 3.28,-10.1 -2.45,-24.89 3.67,-33.3 6.12,-8.41 22.06,-7.58 30.55,-13.76 8.49,-6.18 12.41,-21.52999 22.52,-24.80999 9.75,-3.16 22,6.85 32.8,6.85 10.8,0 23.06,-10 32.8,-6.85 10.1,3.28 14.11,18.68999 22.52,24.80999 8.41,6.12 24.37,5.27 30.55,13.76 6.18,8.49 0.39,23.2 3.67,33.3 3.17,9.74 16.6,18.29 16.6,29.0902 z"
     fill="#14483b"
     stroke="#f9fffe"
     stroke-width="2"
     id="path1" />
  <path
     d="m 133.83,190.877 c -1.96,-0.156 -3.885,-0.607 -5.71,-1.34 l 0.19,-0.55 c 1.765,0.707 3.625,1.145 5.52,1.3 z m -55.57,-0.21 -0.11,-0.57 c 1.864,-0.434 3.6952,-0.999 5.48,-1.69 l 0.2,0.54 c -1.8108,0.721 -3.6726,1.305 -5.57,1.75 z m -3,-0.14 c -1.5434,-1.226 -2.8658,-2.708 -3.91,-4.38 l 0.47,-0.33 c 1.0035,1.611 2.2712,3.041 3.75,4.23 z m 61.18,-1.18 -0.42,-0.4 c 1.277,-1.427 2.44,-2.952 3.48,-4.56 l 0.48,0.32 c -1.065,1.648 -2.259,3.21 -3.57,4.67 z m -11,-0.8 -1.55,-0.59 h -0.06 c -1.23,-0.47 -2.5,-1 -3.8,-1.42 l 0.2,-0.54 c 1.31,0.47 2.58,1 3.81,1.43 v 0.29 l 0.1,-0.27 1.55,0.59 z m -38.86,-0.62 -0.21,-0.54 c 1.74,-0.67 3.55,-1.35 5.44,-2 l 0.19,0.55 c -1.93,0.67 -3.72,1.35 -5.46,2.02 z m 30.72,-2.34 c -1.821,-0.598 -3.674,-1.092 -5.55,-1.48 l 0.11,-0.57 c 1.9,0.393 3.777,0.894 5.62,1.5 z m -22.56,-0.51 -0.16,-0.55 c 1.8596,-0.554 3.7537,-0.985 5.67,-1.29 l 0.09,0.57 c -1.9065,0.305 -3.7906,0.736 -5.64,1.29 z m -25,-1.32 -1.27,-1.88 c -0.63,-1 -1.27,-2 -1.94,-3 l 0.48,-0.32 c 0.67,1 1.31,2 1.94,3 l 1.22,1.88 z m 39.18,-0.1 c -1.897,-0.235 -3.813,-0.288 -5.72,-0.16 v -0.58 c 1.944,-0.129 3.896,-0.072 5.83,0.17 z m 32.67,-1.35 -0.48,-0.31 0.28,-0.43 c 0.92,-1.43 1.88,-2.91 2.92,-4.4 l 0.47,0.33 c -1,1.49 -2,3 -2.91,4.39 z m -76.65,-5.76 c -1.1067,-1.567 -2.302,-3.069 -3.58,-4.5 l 0.43,-0.39 c 1.2922,1.447 2.5008,2.966 3.62,4.55 z m 81.53,-1.39 -0.46,-0.35 c 1.164,-1.552 2.43,-3.025 3.79,-4.41 l 0.41,0.41 c -1.359,1.367 -2.625,2.824 -3.79,4.36 z m -87.11,-5.16 c -0.9025,-0.852 -1.8577,-1.647 -2.86,-2.38 -0.53,-0.38 -1.09,-0.76 -1.66,-1.12 l 0.31,-0.49 c 0.58,0.37 1.15,0.75 1.69,1.14 1.0235,0.748 1.9988,1.559 2.92,2.43 z m 93,-1.14 -0.37,-0.44 c 0.53,-0.44 1.07,-0.87 1.61,-1.26 1.024,-0.732 2.093,-1.4 3.2,-2 l 0.28,0.5 c -1.087,0.601 -2.136,1.269 -3.14,2 -0.63,0.36 -1.16,0.78 -1.67,1.22 z m -100,-3.77 c -1.712,-0.86 -3.4793,-1.605 -5.29,-2.23 l 0.19,-0.54 c 1.8347,0.634 3.6254,1.389 5.36,2.26 z m 107.26,-0.74 -0.24,-0.53 c 1.773,-0.79 3.589,-1.477 5.44,-2.06 l 0.18,0.55 c -1.855,0.578 -3.674,1.262 -5.45,2.05 z m -115.36,-2.38 c -1.77,-0.54 -3.52,-1 -5.21,-1.46 l -0.35,-0.09 0.15,-0.56 0.33,0.09 c 1.71,0.46 3.47,0.93 5.25,1.47 z m 123.42,-0.49 -0.16,-0.56 c 1.21,-0.34 2.4,-0.66 3.56,-1 h 0.08 l 1.94,-0.53 0.15,0.56 -1.95,0.53 h -0.06 c -1.16,0.34 -2.35,0.66 -3.56,1.01 z M 35.9,159.647 c -1.882,-0.498 -3.7239,-1.136 -5.51,-1.91 l 0.24,-0.52 c 1.7578,0.76 3.5694,1.388 5.42,1.88 z m 140.15,-0.5 -0.17,-0.55 c 1.841,-0.457 3.597,-1.206 5.2,-2.22 l 0.36,0.45 c -1.659,1.061 -3.479,1.845 -5.39,2.32 z m -147.92,-3.37 c -0.4452,-1.675 -0.6241,-3.409 -0.53,-5.14 0,-0.233 0,-0.47 0,-0.71 h 0.53 c 0,0.233 0,0.467 0,0.7 -0.086,1.663 0.0826,3.328 0.5,4.94 z m 154.5,-1.75 -0.57,-0.07 c 0.113,-1.103 0.163,-2.211 0.15,-3.32 0,-0.73 0,-1.52 0,-2.42 h 0.58 c 0,0.91 0,1.71 0,2.44 -0.006,1.123 -0.076,2.245 -0.21,3.36 z m -154.36,-7 h -0.58 c 0,-0.7 0.06,-1.37 0.09,-2 0.06,-1.24 0.13,-2.51 0.17,-3.81 h 0.58 c 0,1.3 -0.11,2.58 -0.17,3.82 -0.08,0.66 -0.11,1.32 -0.14,2.02 z m 153.77,-1.72 v -0.19 c -0.09,-1.84 -0.19,-3.69 -0.22,-5.6 h 0.58 c 0,1.9 0.12,3.75 0.21,5.53 v 0.23 z m -154,-7 c 0.0113,-1.911 -0.0855,-3.82 -0.29,-5.72 l 0.57,-0.06 c 0.2089,1.92 0.3091,3.849 0.3,5.78 z m 154.4,-1.72 h -0.58 c 0.042,-1.942 0.213,-3.88 0.51,-5.8 l 0.57,0.09 c -0.325,1.911 -0.522,3.842 -0.59,5.78 z m -155.21,-6.79 c -0.2331,-1.218 -0.5404,-2.42 -0.92,-3.6 -0.2,-0.62 -0.43,-1.26 -0.69,-1.88 l 0.53,-0.22 c 0.26,0.64 0.5,1.29 0.7,1.92 0.3878,1.203 0.7018,2.429 0.94,3.67 z m 156.19,-1.67 -0.56,-0.14 c 0.17,-0.67 0.36,-1.33 0.56,-2 0.394,-1.202 0.865,-2.378 1.41,-3.52 l 0.52,0.25 c -0.533,1.12 -0.994,2.272 -1.38,3.45 -0.19,0.65 -0.38,1.3 -0.54,1.96 z m -159,-6.42 c -0.8893,-1.699 -1.8915,-3.336 -3,-4.9 l 0.47,-0.33 c 1.1109,1.598 2.1131,3.268 3,5 z m 162.28,-1.5 -0.5,-0.29 c 0.98,-1.673 2.055,-3.289 3.22,-4.84 l 0.46,0.34 c -1.154,1.535 -2.219,3.134 -3.19,4.79 z m -167,-5.72 c -1,-1.37 -2.11,-2.67 -3.14,-3.94 l -0.43,-0.57 0.45,-0.36 0.47,0.57 c 1,1.27 2.1,2.58 3.15,4 z m 171.91,-1.36 -0.45,-0.36 c 0.7,-0.89 1.4,-1.75 2.09,-2.59 l 1.55,-1.91 0.45,0.36 -1.53,1.9 c -0.69,0.86 -1.39,1.72 -2.09,2.61 z M 14.3,107.707 c -1.2337,-1.512 -2.3344,-3.128 -3.29,-4.83 l 0.51,-0.27 c 0.9392,1.666 2.0198,3.249 3.23,4.73 z m 182.74,-1.38 -0.46,-0.34 c 1.219,-1.451 2.17,-3.106 2.81,-4.89 l 0.56,0.13 c -0.655,1.861 -1.641,3.589 -2.91,5.1 z m -186.13,-6.26 -0.56,-0.1299 c 0.6483,-1.8653 1.631,-3.5969 2.9,-5.11 l 0.46,0.34 c -1.2191,1.4525 -2.1675,3.1122 -2.8,4.8999 z m 187.87,-1.5299 c -0.939,-1.6667 -2.019,-3.2492 -3.23,-4.73 l 0.46,-0.35 c 1.234,1.5087 2.334,3.1214 3.29,4.82 z m -183.31,-5.66 -0.45,-0.36 1.56,-1.93 c 0.68,-0.84 1.38,-1.69 2.07,-2.57 l 0.45,0.36 c -0.7,0.88 -1.4,1.74 -2.08,2.58 z m 178.27,-1.34 -0.48,-0.58 c -1,-1.28 -2.1,-2.58 -3.14,-3.94 l 0.46,-0.35 c 1,1.36 2.09,2.66 3.12,3.91 l 0.49,0.6 z m -172.87,-5.45 -0.46,-0.34 c 1.1502,-1.5349 2.2119,-3.1342 3.18,-4.79 l 0.5,0.29 c -0.9805,1.6732 -2.0555,3.2892 -3.22,4.84 z m 167.53,-1.41 c -1.111,-1.5977 -2.113,-3.2681 -3,-5 l 0.51,-0.27 c 0.889,1.6985 1.892,3.3355 3,4.9 z m -163,-6 -0.52,-0.25 c 0.5369,-1.1224 1.0012,-2.2781 1.39,-3.46 0.2,-0.62 0.39,-1.27 0.55,-1.92 l 0.56,0.14 c -0.17,0.66 -0.35,1.32 -0.56,2 -0.383,1.1876 -0.8406,2.35 -1.37,3.48 z m 158.73,-1.6 c -0.26,-0.64 -0.5,-1.3 -0.71,-1.94 -0.388,-1.1998 -0.701,-2.422 -0.94,-3.66 l 0.57,-0.11 c 0.233,1.2142 0.541,2.4131 0.92,3.59 0.2,0.63 0.44,1.27 0.69,1.9 z M 28,70.3271 l -0.57,-0.09 c 0.2921,-1.8936 0.4592,-3.8044 0.5,-5.72 h 0.58 c -0.0418,1.9458 -0.2121,3.8867 -0.51,5.81 z m 154.05,-1.73 c -0.209,-1.9228 -0.31,-3.8559 -0.3,-5.79 h 0.58 c -0.012,1.9139 0.085,3.827 0.29,5.73 z m -154.1,-7 c 0,-1.91 -0.12,-3.76 -0.21,-5.55 v -0.17 h 0.58 v 0.18 c 0.09,1.84 0.19,3.69 0.22,5.61 z m 154.43,-1.72 h -0.58 c 0,-1.31 0.11,-2.59 0.17,-3.84 0,-0.59 0.06,-1.25 0.09,-1.95 h 0.58 c 0,0.7 -0.06,1.36 -0.09,1.95 -0.06,1.29 -0.12,2.57 -0.17,3.84 z M 27.6,52.9671 c 0,-0.92 0,-1.72 0,-2.45 -0.0109,-1.1255 0.0425,-2.2507 0.16,-3.37 l 0.57,0.07 c -0.1119,1.0963 -0.162,2.198 -0.15,3.3 0,0.73 0,1.52 0,2.43 z m 155.14,-1.73 h -0.61 c 0,-0.24 0,-0.4767 0,-0.71 0.085,-1.6553 -0.08,-3.314 -0.49,-4.92 l 0.54,-0.2 c 0.441,1.6688 0.62,3.3961 0.53,5.12 0.02,0.2333 0.027,0.47 0.02,0.71 z m -153.54,-6.45 -0.36,-0.45 c 1.657,-1.0665 3.4779,-1.8536 5.39,-2.33 l 0.17,0.55 c -1.8425,0.4573 -3.5986,1.2104 -5.2,2.23 z m 150.46,-0.84 c -1.758,-0.7599 -3.569,-1.3883 -5.42,-1.88 l 0.16,-0.55 c 1.882,0.4968 3.724,1.1353 5.51,1.91 z m -142.53,-2.2 -0.15,-0.56 2,-0.55 c 1.16,-0.31 2.35,-0.63 3.56,-1 l 0.16,0.56 c -1.21,0.35 -2.41,0.67 -3.57,1 z m 134.29,-0.45 -0.35,-0.09 c -1.7,-0.45 -3.45,-0.93 -5.23,-1.47 l 0.17,-0.55 c 1.77,0.54 3.52,1 5.22,1.46 l 0.35,0.09 z m -125.89,-1.91 -0.18,-0.55 c 1.8263,-0.5647 3.6192,-1.2324 5.37,-2 l 0.24,0.53 c -1.7704,0.7753 -3.5833,1.4497 -5.43,2.02 z m 117.6,-0.51 c -1.835,-0.6339 -3.625,-1.3889 -5.36,-2.26 l 0.26,-0.51 c 1.712,0.8596 3.479,1.6046 5.29,2.23 z m -109.54,-2.81 -0.28,-0.51 c 1.0905,-0.6007 2.1425,-1.2687 3.15,-2 0.53,-0.38 1.05,-0.8 1.57,-1.23 l 0.37,0.44 c -0.52,0.44 -1.06,0.86 -1.6,1.25 -1.034,0.7362 -2.1128,1.4075 -3.23,2.01 z m 101.64,-0.89 c -0.59,-0.37 -1.16,-0.75 -1.71,-1.15 -1.02,-0.7449 -1.992,-1.5532 -2.91,-2.42 l 0.4,-0.42 c 0.899,0.8488 1.851,1.6403 2.85,2.37 0.53,0.39 1.1,0.77 1.67,1.13 z m -94.68,-4.38 -0.41,-0.41 c 1.3419,-1.3654 2.5913,-2.8186 3.74,-4.35 l 0.46,0.35 c -1.1718,1.5394 -2.4446,2.9993 -3.81,4.37 z m 88,-1.27 c -1.296,-1.4462 -2.508,-2.9654 -3.63,-4.55 l 0.47,-0.34 c 1.107,1.5635 2.302,3.0626 3.58,4.49 z m -82.53,-5.5 -0.47,-0.33 c 1,-1.48 2,-3 2.91,-4.38 l 0.28,-0.43 0.48,0.31 -0.27,0.42 c -0.93,1.4 -1.89,2.89 -2.92,4.37 z m 77.26,-1.43 c -0.67,-1 -1.32,-2 -1.95,-3 l -1.2,-1.89 0.48,-0.32 1.21,1.86 c 0.64,1 1.28,2 2,3 z m -38.15,-4.31 c -1.263,-0.0013 -2.526,-0.0781 -3.78,-0.23 l 0.07,-0.57 c 1.897,0.2349 3.813,0.2885 5.72,0.16 v 0.58 c -0.64,0.04 -1.33,0.06 -2.01,0.06 z m 5,-0.41 -0.09,-0.57 c 1.892,-0.3001 3.763,-0.7244 5.6,-1.27 l 0.16,0.55 c -1.86,0.5537 -3.754,0.9846 -5.67,1.29 z m -11.6,-0.31 c -1.9001,-0.3898 -3.7765,-0.8872 -5.62,-1.49 l 0.18,-0.55 c 1.8204,0.5981 3.6734,1.0922 5.55,1.48 z m -27.67,-0.85 -0.48,-0.32 c 1.0542,-1.6361 2.2344,-3.1875 3.53,-4.64 l 0.42,0.4 c -1.2917,1.4355 -2.4687,2.9702 -3.52,4.59 z m 47.72,-1 -0.19,-0.55 c 1.88,-0.64 3.68,-1.33 5.42,-2 l 0.21,0.54 c -1.79,0.69 -3.6,1.38 -5.49,2.02 z m 20,-0.41 c -1.002,-1.6087 -2.266,-3.0384 -3.74,-4.23 l 0.31,-0.49 c 1.539,1.2321 2.858,2.7165 3.9,4.39 z m -48.45,-0.15 c -1.33,-0.48 -2.6,-1 -3.84,-1.44 l -1.58,-0.6 0.2,-0.54 1.58,0.6 c 1.23,0.47 2.51,1 3.83,1.43 z m 36.55,-2.44 -0.2,-0.54 c 1.811,-0.7111 3.673,-1.2861 5.57,-1.72 l 0.11,0.57 c -1.869,0.423 -3.704,0.9846 -5.49,1.68 z M 82,12.1371 c -1.7648,-0.7083 -3.6252,-1.1499 -5.52,-1.31 v -0.58 c 1.9564,0.1587 3.8778,0.6104 5.7,1.34 z"
     fill="#f9fffe"
     id="path2" />
  <path
     d="m 129.98,30.407 c -4.54,-4.56 -13.32,-3.1899 -19.61,3.0701 -6.29,6.26 -7.7,14.9999 -3.15,19.5899 0,0 0.79,-5.92 4.51,-9.63 5.91,-5.91 10.59,-3.51 18.25,-13.03 z"
     fill="#f9fffe"
     id="path3" />
  <path
     d="m 123.58,38.9972 c -4.82,3.43 -8.27,2.5 -12.32,8.29 l -4,5.78 c 4.54,4.56 13.32,3.19 19.61,-3.07 6.29,-6.26 7.7,-15 3.15,-19.59 -1.236,3.4449 -3.48,6.438 -6.44,8.59 z"
     fill="#f9fffe"
     id="path4" />
  <path
     d="m 89.6599,34.5264 c -3.78,1.75 -4.9,7.39 -2.49,12.59 2.41,5.2 7.42,8 11.2,6.26 -2.0503,-1.1291 -3.7336,-2.8228 -4.85,-4.88 -2.27,-4.9 0.22,-7.21 -3.86,-13.97 z"
     fill="#f9fffe"
     id="path5" />
  <path
     d="m 93.4599,40.3171 c 1,3.69 -0.32,5.58 2.3,9.32 l 2.62,3.74 c 3.7801,-1.75 4.9001,-7.39 2.4901,-12.59 -2.4101,-5.2 -7.4201,-8 -11.2001,-6.26 1.8141,1.5074 3.1343,3.5243 3.79,5.79 z"
     fill="#f9fffe"
     id="path6" />
  <path
     d="m 155.11819,95.087984 h -44.1 l 1.35,-1.45 h 42.75 z"
     fill="#f9fffe"
     id="path8" />
  <path
     d="m 89.278094,95.087984 h -39.81 v -1.45 h 41.54 z"
     fill="#f9fffe"
     id="path9" />
  <path
     d="m 105.14,150.627 2.17,6.67 h 7.02 l -5.68,4.13 2.17,6.67 -5.68,-4.12 -5.67,4.12 2.17,-6.67 -5.68,-4.13 h 7.02 z"
     fill="#f9fffe"
     id="path10" />
  <path
     d="m 83.84,150.627 2.17,6.67 h 7.01 l -5.67,4.13 2.17,6.67 -5.68,-4.12 -5.68,4.12 2.17,-6.67 -5.68,-4.13 h 7.02 z"
     fill="#f9fffe"
     id="path11" />
  <path
     d="m 126.45,150.627 2.17,6.67 h 7.01 l -5.67,4.13 2.17,6.67 -5.68,-4.12 -5.68,4.12 2.17,-6.67 -5.68,-4.13 h 7.02 z"
     fill="#f9fffe"
     id="path12" />
  <g
     id="layer1">
    <g
       id="text13"
       style="font-size:35.0549px;fill:#f9f9f9;stroke-width:1.09546"
       transform="matrix(1.1581401,0,0,0.86345343,0,-2)"
       aria-label="Zielona&#10;Kawiarnia ">
      <path
         style="font-weight:500;font-family:'TeX Gyre Chorus';-inkscape-font-specification:'TeX Gyre Chorus Medium';text-align:center;text-anchor:middle"
         d="m 63.158766,91.225363 c 0,-0.981537 -0.175274,-1.7878 -0.701098,-3.014721 l -2.629117,1.57747 c 0.140219,0.245385 0.315494,0.525824 0.455714,0.736153 0.560878,0.981538 0.701098,1.402196 0.701098,2.208459 0,1.85791 -1.086702,2.769337 -3.400326,2.769337 -1.332086,0 -2.734282,-0.07011 -5.012851,-0.280439 -2.944611,-0.280439 -3.645709,-0.315494 -4.697356,-0.315494 h -0.595934 -0.666043 l -1.121757,0.175274 2.839447,-2.944611 5.047906,-5.153071 9.044165,-9.149329 v -1.016592 c -1.226922,1.051647 -2.208459,1.437251 -3.505491,1.437251 -0.490768,0 -1.472305,-0.07011 -2.804392,-0.210329 l -4.311753,-0.420659 c -1.752745,-0.175275 -1.752745,-0.175275 -2.033184,-0.175275 -0.771208,0 -0.981537,0.175275 -1.542415,1.332086 l -2.313624,5.047906 0.595933,0.876373 c 2.453843,-4.311753 2.629118,-4.557137 3.71582,-4.557137 0.245384,0 0.595933,0.03505 0.946482,0.07011 1.402196,0.175275 2.348679,0.245385 3.5756,0.245385 1.647581,0 2.348679,-0.07011 4.066369,-0.350549 l -11.883612,11.883611 -5.29329,5.082961 v 1.297031 c 1.156812,-0.841317 1.963075,-1.121757 3.260106,-1.121757 0.911427,0 2.138349,0.07011 3.470435,0.21033 4.276698,0.455713 7.677024,0.736153 8.518341,0.736153 0.981537,0 1.822855,-0.315494 2.488898,-0.946483 0.420659,-0.420658 0.736153,-0.771207 1.71769,-2.033184 L 61.89679,94.20503 c 1.051647,-1.261977 1.261976,-1.7878 1.261976,-2.979667 z m 8.833865,3.365271 0.140219,-1.051647 c -1.71769,1.051647 -3.43538,1.928019 -3.750874,1.928019 -0.385604,0 -0.666043,-0.420658 -0.666043,-0.981537 0,-1.261976 0.420659,-2.594063 0.736153,-3.926149 l 1.086702,-4.451972 c 0.175274,-0.736153 0.455713,-1.85791 0.455713,-2.278569 0,-0.280439 -0.105164,-0.455714 -0.420658,-0.455714 -0.806263,0 -4.451973,2.383734 -5.50362,3.084832 l -0.03505,1.016592 c 0.806263,-0.455714 2.068239,-1.297031 2.559008,-1.297031 0.385604,0 0.420659,0.385603 0.420659,0.701098 0,0.771207 -0.771208,3.36527 -1.156812,4.977796 -0.385604,1.612525 -1.016592,3.260105 -1.016592,4.837576 0,0.911427 0.350549,1.472306 0.911427,1.472306 0.595934,0 1.226922,-0.315494 3.260106,-1.647581 0.560879,-0.385604 0.841318,-0.595933 2.979667,-1.928019 z M 72.238015,78.32516 c -0.630988,-1.016592 -0.666043,-1.121757 -1.016592,-1.92802 -0.03505,-0.140219 -0.105165,-0.315494 -0.175275,-0.455714 -0.210329,0.175275 -0.350549,0.28044 -0.490768,0.385604 -0.946483,0.806263 -1.016592,0.841318 -1.92802,1.472306 0.280439,0.841318 0.525824,1.261977 1.332086,2.453843 l 1.156812,-1.051647 c 0.21033,-0.140219 0.315494,-0.245384 1.121757,-0.876372 z m 10.761846,15.704595 v -1.016592 c -1.297031,1.051647 -3.785929,3.189996 -5.573729,3.189996 -1.963074,0 -2.138349,-2.103294 -2.103294,-3.470435 0.806263,-0.385604 4.241643,-2.979667 4.942741,-3.50549 1.297031,-1.051647 2.243514,-2.173404 2.243514,-3.820984 0,-1.156812 -0.701098,-2.033185 -1.99813,-2.033185 -1.261976,0 -2.348678,0.630989 -3.610654,1.612526 -3.084832,2.383733 -4.171534,6.309882 -4.171534,9.605043 0,2.138349 0.876373,3.64571 3.014722,3.64571 2.699227,0 5.819113,-2.769338 7.256364,-4.206589 z M 79.91503,86.387787 c 0,2.523953 -2.874502,3.961204 -4.557137,5.258235 0.14022,-1.752745 1.472306,-6.730541 3.470435,-6.730541 0.771208,0 1.086702,0.701098 1.086702,1.472306 z m 12.374384,7.606914 v -0.771208 c -0.490768,0.280439 -0.806262,0.490768 -0.946482,0.560878 -2.523953,1.577471 -2.804392,1.71769 -3.295161,1.71769 -0.630988,0 -0.630988,-0.841317 -0.630988,-1.542415 0,-0.630989 1.577471,-7.431639 2.874502,-12.37438 1.367141,-5.153071 1.682635,-5.784059 3.225051,-5.784059 0.455714,0 0.806263,0.03505 1.71769,0.245384 l 1.507361,-1.85791 c -0.736153,-0.175274 -1.121757,-0.210329 -1.577471,-0.210329 -1.402196,0 -2.523953,0.560878 -4.206588,2.068239 -1.542415,1.402196 -1.928019,1.92802 -2.383733,3.189996 -0.280439,0.841318 -1.051647,3.680765 -1.402196,5.22318 l -2.523953,10.972184 c -0.03505,0.21033 -0.07011,0.420659 -0.07011,0.630989 0,1.086702 0.420659,2.138349 1.472306,2.138349 0.350549,0 1.822855,-1.016592 6.239772,-4.206588 z m 13.390966,-7.43164 c 0,-1.892964 -1.29703,-3.22505 -3.15494,-3.22505 -1.4022,0 -3.645711,1.016592 -5.71395,2.559007 -2.243513,1.682636 -3.820984,5.328345 -3.820984,8.798781 0,2.138349 1.191867,3.50549 3.049776,3.50549 0.981538,0 1.963075,-0.350549 3.5756,-1.191867 1.752748,-0.981537 2.909558,-1.85791 3.540548,-2.699227 1.40219,-1.892965 2.52395,-5.328345 2.52395,-7.747134 z m -2.69923,1.892965 c 0,1.472306 -0.49077,3.295161 -1.36714,5.012851 -0.98154,1.998129 -2.243512,3.084831 -3.575598,3.084831 -1.437251,0 -2.348679,-1.297031 -2.348679,-3.29516 0,-4.066369 2.559008,-8.272957 5.012847,-8.272957 1.4022,0 2.27857,1.367141 2.27857,3.470435 z m 19.21007,4.802522 c -3.50549,1.998129 -3.64571,2.068239 -3.99625,2.068239 -0.35055,0 -0.56088,-0.385604 -0.56088,-0.946483 0,-0.736152 0.24538,-1.892964 0.91142,-4.311752 1.64758,-5.889224 1.64758,-5.889224 1.64758,-6.134608 0,-0.385604 -0.24538,-0.595933 -0.70109,-0.595933 -0.52583,0 -1.29703,0.315494 -2.55901,1.121756 l -4.80252,2.979667 c 0.31549,-1.156812 0.84132,-3.36527 0.84132,-3.64571 0,-0.245384 -0.21033,-0.455713 -0.45572,-0.455713 -0.3856,0 -2.90956,1.297031 -5.50362,2.839447 l -0.21033,0.911427 c 2.24352,-1.016592 2.38374,-1.051647 2.69923,-1.051647 0.24538,0 0.42066,0.210329 0.42066,0.490769 0,0.736153 -0.66604,3.645709 -1.54242,6.835705 l -0.80626,2.839447 -0.49077,1.892965 2.62912,-1.016592 2.06824,-8.237902 c 4.38186,-2.769337 4.48703,-2.804392 4.97779,-2.804392 0.24539,0 0.38561,0.175274 0.38561,0.455714 0,0.525823 -0.28044,1.857909 -1.29703,5.854168 -0.77121,3.119886 -0.91143,3.71582 -0.91143,4.381863 0,0.490768 0.14022,0.946482 0.52582,1.57747 1.61253,-0.736153 4.03132,-2.243513 6.48516,-4.066368 z m 15.10863,1.016592 v -1.016592 c -0.66604,0.420658 -2.97966,2.068239 -3.54054,2.068239 -0.35055,0 -0.42066,-0.455714 -0.42066,-0.771208 0,-1.297031 1.57747,-7.712078 1.99813,-9.429768 0.14022,-0.21033 0.84132,-1.086702 1.01659,-1.261977 -1.19187,-0.315494 -2.73428,-0.525823 -4.13648,-0.525823 -2.34868,0 -2.59406,0.245384 -4.20659,1.367141 -0.94648,0.666043 -1.82285,1.051647 -2.48889,2.103294 -1.75275,2.734282 -2.41879,6.274827 -2.41879,8.483286 0,1.051647 0.28044,2.944612 1.50736,2.944612 1.29703,0 4.45197,-2.629118 6.27483,-3.891094 l -0.24539,1.57747 c -0.21033,1.191867 -0.42066,2.278569 0.42066,2.278569 0.87637,0 5.22318,-3.189996 6.23977,-3.926149 z m -6.20471,-1.297032 c -1.05165,0.771208 -3.36527,2.664173 -4.2767,2.664173 -0.91143,0 -1.0867,-0.946482 -1.0867,-1.7878 0,-2.243514 0.70109,-4.802522 1.61252,-6.590321 0.59593,-1.226922 1.15681,-2.243514 2.73428,-2.243514 0.87638,0 1.96308,0.245384 2.83945,0.420659 z"
         id="path16" />
      <path
         style="font-weight:500;font-family:'TeX Gyre Chorus';-inkscape-font-specification:'TeX Gyre Chorus Medium';text-align:center;text-anchor:middle"
         d="m 49.312091,146.39356 -0.385604,-2.8745 c -1.367141,1.92802 -2.138349,2.52395 -3.330215,2.52395 -1.226922,0 -2.453843,-1.01659 -3.470436,-2.8745 -1.016592,-1.89296 -1.50736,-3.08483 -3.29516,-8.09768 l -1.963075,-5.3634 c 5.50362,-4.6623 6.905816,-5.57373 8.448231,-5.57373 0.630989,0 1.086702,0.10516 2.06824,0.52582 l 1.297031,-2.59406 c -0.876373,-0.35055 -1.332086,-0.45571 -1.963074,-0.45571 -1.121757,0 -1.85791,0.35055 -3.470436,1.68263 l -7.361529,6.02944 c -0.105165,0.10517 -0.525823,0.42066 -1.121757,0.87638 l 1.822855,-7.32648 c 1.016592,-0.28044 1.297031,-0.45571 1.822855,-1.0867 -1.577471,-0.10516 -2.313624,-0.14022 -3.189996,-0.14022 -2.769337,0 -5.012851,0.38561 -6.555267,1.12176 -2.629117,1.29703 -4.066368,3.36527 -4.066368,5.88922 0,0.91143 0.140219,1.43725 0.595933,2.62912 l 2.874502,-1.22692 c -0.560878,-1.36714 -0.771208,-2.24352 -0.771208,-3.33022 0,-2.45384 1.752745,-3.78593 5.012851,-3.78593 0.385604,0 0.946482,0.0351 1.682635,0.10517 l -1.051647,4.31175 c -1.086702,4.38186 -1.57747,6.20472 -2.138349,7.81724 -1.367141,3.8911 -2.664172,5.15307 -5.363399,5.15307 h -1.332087 l -1.542415,1.50736 h 4.802521 c 3.084831,0 3.154941,-0.0351 5.538674,-1.50736 h -4.241643 c 4.276698,-4.27669 4.837577,-5.18812 5.959334,-9.56998 0.07011,0.24538 0.175274,0.49076 0.245384,0.7712 0.210329,0.59594 0.210329,0.63099 0.630988,1.92802 l 0.630988,2.1033 c 1.507361,4.90768 2.559008,7.32647 3.820985,8.76372 1.542415,1.75275 3.680764,2.66418 6.274827,2.66418 1.156812,0 1.7878,-0.10517 3.084831,-0.59594 z m 10.516464,-8.02757 v -1.01659 c -0.666043,0.42066 -2.979666,2.06824 -3.540545,2.06824 -0.350549,0 -0.420658,-0.45572 -0.420658,-0.77121 0,-1.29703 1.57747,-7.71208 1.998129,-9.42977 0.140219,-0.21033 0.841318,-1.0867 1.016592,-1.26198 -1.191867,-0.31549 -2.734282,-0.52582 -4.136478,-0.52582 -2.348679,0 -2.594063,0.24538 -4.206588,1.36714 -0.946483,0.66604 -1.822855,1.05165 -2.488898,2.1033 -1.752745,2.73428 -2.418789,6.27482 -2.418789,8.48328 0,1.05165 0.28044,2.94461 1.507361,2.94461 1.297031,0 4.451973,-2.62911 6.274827,-3.89109 l -0.245384,1.57747 c -0.210329,1.19187 -0.420659,2.27857 0.420659,2.27857 0.876372,0 5.22318,-3.19 6.239772,-3.92615 z m -6.204717,-1.29703 c -1.051647,0.77121 -3.365271,2.66417 -4.276698,2.66417 -0.911428,0 -1.086702,-0.94648 -1.086702,-1.7878 0,-2.24351 0.701098,-4.80252 1.612525,-6.59032 0.595934,-1.22692 1.156812,-2.24351 2.734283,-2.24351 0.876372,0 1.963074,0.24538 2.839447,0.42065 z m 30.252384,-8.86889 c 0,-0.94648 -0.28044,-1.54242 -0.876373,-1.92802 -0.876373,0.24538 -1.191867,0.35055 -2.453843,0.91143 0.350549,0.91142 0.455714,1.50736 0.455714,2.45384 0,2.31362 -0.876373,5.0479 -2.313624,7.29142 -1.226921,1.89296 -3.014721,3.36527 -4.101423,3.36527 -0.701098,0 -1.191867,-0.66604 -1.191867,-1.61253 0,-1.50736 0.525824,-3.33021 2.839447,-10.27108 -0.946482,0.31549 -1.332086,0.42066 -2.594063,0.73615 l -0.455713,1.47231 c -1.261977,4.20658 -1.612526,4.97779 -2.699228,6.37999 -1.332086,1.75274 -3.225051,3.11988 -4.311753,3.11988 -0.595933,0 -0.946482,-0.59593 -0.946482,-1.54241 0,-1.50736 0.595933,-3.47044 1.577471,-5.25824 0.876372,-1.50736 1.64758,-2.48889 3.610655,-4.45197 v -0.35055 c 0,0 0,-0.14022 -0.03505,-0.28044 h -0.385604 c -0.560879,0.42066 -0.841318,0.49077 -1.437251,0.49077 l -3.996259,-0.0701 c -0.385604,-0.035 -0.701098,-0.035 -0.946482,-0.035 -0.595934,0 -0.981538,0.10516 -1.191867,0.35055 -0.525823,0.52582 -1.226921,2.13834 -2.033184,4.73241 l 0.595933,0.84132 c 0.666043,-1.68264 0.841318,-2.13835 1.086702,-2.59407 0.560878,-0.91142 1.191867,-1.33208 2.068239,-1.33208 0.175275,0 0.630988,0 1.156812,0.035 0.280439,0.0351 0.595933,0.0351 0.911427,0.0351 0.736153,0 0.981538,-0.0351 1.612526,-0.28044 l -1.191867,1.33208 c -1.507361,1.64758 -1.998129,2.27857 -2.629117,3.43538 -0.911428,1.64758 -1.472306,3.50549 -1.472306,4.9778 0,1.26198 0.771208,2.13835 1.892964,2.13835 1.822855,0 3.891094,-1.47231 6.800651,-4.76747 -0.385604,1.15681 -0.525823,1.85791 -0.525823,2.76934 0,1.26198 0.701098,1.99813 1.892964,1.99813 4.416918,0 11.287679,-8.5534 11.287679,-14.09207 z m 8.09769,10.48141 0.14022,-1.05164 c -1.71769,1.05164 -3.43538,1.92802 -3.750875,1.92802 -0.385603,0 -0.666043,-0.42066 -0.666043,-0.98154 0,-1.26198 0.420659,-2.59406 0.736153,-3.92615 l 1.086702,-4.45197 c 0.175275,-0.73616 0.455714,-1.85791 0.455714,-2.27857 0,-0.28044 -0.105165,-0.45571 -0.420659,-0.45571 -0.806263,0 -4.451972,2.38373 -5.503619,3.08483 l -0.03505,1.01659 c 0.806262,-0.45572 2.068239,-1.29703 2.559007,-1.29703 0.385604,0 0.420659,0.3856 0.420659,0.7011 0,0.7712 -0.771208,3.36527 -1.156811,4.97779 -0.385604,1.61253 -1.016593,3.26011 -1.016593,4.83758 0,0.91142 0.350549,1.4723 0.911428,1.4723 0.595933,0 1.226921,-0.31549 3.260106,-1.64758 0.560878,-0.3856 0.841317,-0.59593 2.979666,-1.92802 z m 0.245385,-16.26547 c -0.630989,-1.01659 -0.666044,-1.12176 -1.016593,-1.92802 -0.03505,-0.14022 -0.105164,-0.31549 -0.175274,-0.45571 -0.210329,0.17527 -0.350549,0.28044 -0.490769,0.3856 -0.946482,0.80626 -1.016592,0.84132 -1.928019,1.47231 0.280439,0.84131 0.525823,1.26197 1.332086,2.45384 l 1.156812,-1.05165 c 0.210329,-0.14022 0.315494,-0.24538 1.121757,-0.87637 z m 14.582833,15.94998 v -1.01659 c -0.66604,0.42066 -2.97967,2.06824 -3.54055,2.06824 -0.35054,0 -0.42065,-0.45572 -0.42065,-0.77121 0,-1.29703 1.57747,-7.71208 1.99812,-9.42977 0.14022,-0.21033 0.84132,-1.0867 1.0166,-1.26198 -1.19187,-0.31549 -2.73429,-0.52582 -4.13648,-0.52582 -2.34868,0 -2.594064,0.24538 -4.20659,1.36714 -0.946482,0.66604 -1.822855,1.05165 -2.488898,2.1033 -1.752745,2.73428 -2.418788,6.27482 -2.418788,8.48328 0,1.05165 0.280439,2.94461 1.507361,2.94461 1.297031,0 4.451972,-2.62911 6.274825,-3.89109 l -0.24538,1.57747 c -0.210332,1.19187 -0.420661,2.27857 0.42066,2.27857 0.87637,0 5.22318,-3.19 6.23977,-3.92615 z m -6.20472,-1.29703 c -1.051646,0.77121 -3.365269,2.66417 -4.276696,2.66417 -0.911428,0 -1.086702,-0.94648 -1.086702,-1.7878 0,-2.24351 0.701098,-4.80252 1.612525,-6.59032 0.595933,-1.22692 1.156812,-2.24351 2.734282,-2.24351 0.876371,0 1.963071,0.24538 2.839451,0.42065 z m 18.05328,-9.35966 c -0.66605,-0.21033 -0.94648,-0.28044 -1.29703,-0.28044 -0.63099,0 -1.36714,0.31549 -2.31363,0.98154 l -2.06824,1.50736 c 0.0351,-0.28044 0.10517,-0.45572 0.10517,-0.56088 0.28044,-1.15681 0.31549,-1.36714 0.31549,-1.54242 0,-0.21033 -0.21033,-0.3856 -0.45571,-0.3856 -0.45571,0 -3.54055,1.50736 -5.6789,2.80439 l -0.10516,0.94648 c 1.89296,-0.98153 2.10329,-1.05164 2.52395,-1.05164 0.45572,0 0.66605,0.24538 0.66605,0.73615 0,0.49077 -0.35055,2.13835 -0.77121,3.64571 l -2.1033,7.67702 2.69923,-1.01659 2.62912,-9.99065 c 1.19187,-0.87637 1.99813,-1.22692 2.94461,-1.22692 0.77121,0 1.22692,0.28044 1.85791,1.08671 z m 15.10865,9.6401 c -3.50549,1.99813 -3.64571,2.06824 -3.99626,2.06824 -0.35055,0 -0.56088,-0.38561 -0.56088,-0.94649 0,-0.73615 0.24539,-1.89296 0.91143,-4.31175 1.64758,-5.88922 1.64758,-5.88922 1.64758,-6.13461 0,-0.3856 -0.24538,-0.59593 -0.7011,-0.59593 -0.52582,0 -1.29703,0.31549 -2.559,1.12176 l -4.80253,2.97966 c 0.3155,-1.15681 0.84132,-3.36527 0.84132,-3.64571 0,-0.24538 -0.21033,-0.45571 -0.45571,-0.45571 -0.38561,0 -2.90956,1.29703 -5.50362,2.83945 l -0.21033,0.91142 c 2.24351,-1.01659 2.38373,-1.05164 2.69923,-1.05164 0.24538,0 0.42066,0.21033 0.42066,0.49077 0,0.73615 -0.66605,3.64571 -1.54242,6.8357 l -0.80626,2.83945 -0.49077,1.89296 2.62912,-1.01659 2.06824,-8.2379 c 4.38186,-2.76934 4.48702,-2.80439 4.97779,-2.80439 0.24539,0 0.38561,0.17527 0.38561,0.45571 0,0.52582 -0.28044,1.85791 -1.29704,5.85417 -0.7712,3.11989 -0.91142,3.71582 -0.91142,4.38186 0,0.49077 0.14022,0.94648 0.52582,1.57747 1.61253,-0.73615 4.03131,-2.24351 6.48516,-4.06637 z m 8.69358,1.33208 0.14022,-1.05164 c -1.71769,1.05164 -3.43538,1.92802 -3.75087,1.92802 -0.3856,0 -0.66604,-0.42066 -0.66604,-0.98154 0,-1.26198 0.42065,-2.59406 0.73615,-3.92615 l 1.0867,-4.45197 c 0.17528,-0.73616 0.45571,-1.85791 0.45571,-2.27857 0,-0.28044 -0.10516,-0.45571 -0.42065,-0.45571 -0.80627,0 -4.45198,2.38373 -5.50362,3.08483 l -0.0351,1.01659 c 0.80626,-0.45572 2.06824,-1.29703 2.55901,-1.29703 0.3856,0 0.42066,0.3856 0.42066,0.7011 0,0.7712 -0.77121,3.36527 -1.15681,4.97779 -0.38561,1.61253 -1.0166,3.26011 -1.0166,4.83758 0,0.91142 0.35055,1.4723 0.91143,1.4723 0.59593,0 1.22692,-0.31549 3.26011,-1.64758 0.56088,-0.3856 0.84131,-0.59593 2.97966,-1.92802 z m 0.24539,-16.26547 c -0.63099,-1.01659 -0.66605,-1.12176 -1.01659,-1.92802 -0.0351,-0.14022 -0.10517,-0.31549 -0.17528,-0.45571 -0.21033,0.17527 -0.35055,0.28044 -0.49077,0.3856 -0.94648,0.80626 -1.01659,0.84132 -1.92802,1.47231 0.28044,0.84131 0.52583,1.26197 1.33209,2.45384 l 1.15681,-1.05165 c 0.21033,-0.14022 0.3155,-0.24538 1.12176,-0.87637 z m 14.58283,15.94998 v -1.01659 c -0.66604,0.42066 -2.97967,2.06824 -3.54054,2.06824 -0.35055,0 -0.42066,-0.45572 -0.42066,-0.77121 0,-1.29703 1.57747,-7.71208 1.99813,-9.42977 0.14022,-0.21033 0.84131,-1.0867 1.01659,-1.26198 -1.19187,-0.31549 -2.73428,-0.52582 -4.13648,-0.52582 -2.34868,0 -2.59406,0.24538 -4.20659,1.36714 -0.94648,0.66604 -1.82285,1.05165 -2.4889,2.1033 -1.75274,2.73428 -2.41878,6.27482 -2.41878,8.48328 0,1.05165 0.28043,2.94461 1.50736,2.94461 1.29703,0 4.45197,-2.62911 6.27482,-3.89109 l -0.24538,1.57747 c -0.21033,1.19187 -0.42066,2.27857 0.42066,2.27857 0.87637,0 5.22318,-3.19 6.23977,-3.92615 z m -6.20472,-1.29703 c -1.05164,0.77121 -3.36527,2.66417 -4.27669,2.66417 -0.91143,0 -1.08671,-0.94648 -1.08671,-1.7878 0,-2.24351 0.7011,-4.80252 1.61253,-6.59032 0.59593,-1.22692 1.15681,-2.24351 2.73428,-2.24351 0.87637,0 1.96308,0.24538 2.83945,0.42065 z"
         id="path17" />
    </g>
  </g>
  <path
     id="path15"
     style="fill:#f9f9f9"
     d="m 107.78509,96.717872 -3.81416,-0.03708 0.90255,3.706018 -2.89798,-2.480094 -1.6908,3.419124 -0.625807,-3.762654 -3.492993,1.532376 1.939189,-3.284619 -3.66078,-1.071385 3.596818,-1.269677 -2.115648,-3.173832 3.571455,1.33936 0.41942,-3.791209 1.874966,3.321697 2.75824,-2.634636 -0.69884,3.749774 3.80645,-0.245289 -2.94565,2.423291 z" />
  <path
     style="font-size:10.6667px;font-family:'URW Gothic';-inkscape-font-specification:'URW Gothic';text-align:center;text-anchor:middle;fill:#f9f9f9"
     d="m 44.849799,139.7411 c 0.07467,1.41868 1.045336,2.34668 2.464007,2.34668 1.365338,0 2.378675,-0.992 2.378675,-2.33601 0,-0.69333 -0.288001,-1.312 -0.77867,-1.68534 -0.330667,-0.23466 -0.661335,-0.384 -1.472004,-0.62933 -0.714669,-0.21334 -0.949337,-0.30934 -1.162671,-0.49067 -0.224,-0.20267 -0.373334,-0.55467 -0.373334,-0.91734 0,-0.8 0.576002,-1.376 1.365338,-1.376 0.800002,0 1.344004,0.544 1.408004,1.408 h 0.821336 c -0.032,-1.28 -0.917336,-2.13334 -2.208007,-2.13334 -1.269337,0 -2.186674,0.88534 -2.186674,2.12268 0,0.544 0.202668,1.06667 0.554669,1.39733 0.309334,0.29867 0.544002,0.40534 1.472004,0.70401 0.618669,0.18133 0.960004,0.33066 1.226671,0.512 0.341334,0.24533 0.533335,0.65067 0.533335,1.13067 0,0.90667 -0.650669,1.568 -1.557338,1.568 -0.501335,0 -0.981337,-0.224 -1.269338,-0.58667 -0.224,-0.27733 -0.320001,-0.544 -0.373334,-1.03467 z m 1.642671,-6.83735 0.362668,0.59734 2.058673,-1.21601 -0.373334,-0.61867 z m 5.79201,9.04536 h 1.024004 l 1.728005,-6.46402 1.749339,6.46402 h 1.013336 l 2.261341,-7.88269 h -0.810669 l -1.94134,6.85869 -1.888006,-6.85869 h -0.746669 l -1.888006,6.85869 -1.941339,-6.85869 h -0.810669 z m 8.704032,0 h 0.789336 v -7.88269 h -0.789336 z m 2.410673,0 h 4.309347 v -0.71467 h -3.520011 v -2.91201 h 3.402678 v -0.71467 h -3.402678 v -2.82667 h 3.520011 v -0.71467 h -4.309347 z m 8.736021,-2.94401 c 1.514671,-0.16 2.32534,-0.992 2.32534,-2.41067 0,-0.98134 -0.416001,-1.72801 -1.184003,-2.14401 -0.490669,-0.26667 -1.162671,-0.384 -2.208007,-0.384 H 69.11653 v 7.88269 h 0.789335 v -7.16802 h 1.109337 c 0.832003,0 1.386671,0.0853 1.813339,0.288 0.533335,0.256 0.832003,0.78934 0.832003,1.504 0,0.89601 -0.405335,1.46134 -1.194671,1.66401 -0.373334,0.096 -0.885336,0.13867 -1.760005,0.13867 l 2.656008,3.57334 h 0.981337 z m 2.95467,2.94401 h 4.874682 v -0.71467 h -3.978679 l 3.861346,-6.45335 v -0.71467 H 75.20721 v 0.71467 h 3.754679 l -3.872013,6.45335 z m 9.216021,-8.02136 c -2.261341,0 -4.17068,1.84534 -4.17068,4.03202 0,2.29334 1.856006,4.12801 4.181346,4.12801 2.272007,0 4.149347,-1.84534 4.149347,-4.07468 0,-2.25067 -1.87734,-4.08535 -4.160013,-4.08535 z m 0,0.72534 c 1.845339,0 3.36001,1.52534 3.36001,3.37068 0,1.824 -1.525338,3.33867 -3.349344,3.33867 -1.877339,0 -3.381344,-1.51467 -3.381344,-3.38134 0,-1.80267 1.546672,-3.32801 3.370678,-3.32801 z m 8.394691,7.29602 h 0.789336 v -3.18934 h 1.514672 c 1.06667,0 1.642671,-0.13867 2.122673,-0.49067 0.512002,-0.37333 0.789336,-1.024 0.789336,-1.81334 0,-0.90667 -0.341335,-1.62134 -0.93867,-1.97334 -0.490668,-0.29867 -1.088003,-0.416 -2.10134,-0.416 h -2.176007 z m 0.789336,-3.90401 v -3.26401 h 1.120004 c 0.906669,0 1.472004,0.0747 1.792005,0.23467 0.469335,0.23466 0.714669,0.736 0.714669,1.44 0,0.608 -0.245334,1.09867 -0.650668,1.32267 -0.330668,0.192 -0.789336,0.26667 -1.514672,0.26667 z m 4.170687,3.90401 h 0.832003 l 1.152004,-2.65601 h 3.669342 l 1.14134,2.65601 h 0.864 l -3.39201,-7.88269 h -0.88533 z m 2.282674,-3.37068 1.546675,-3.61601 1.51467,3.61601 z m 6.304015,3.37068 h 4.05335 v -0.71467 h -3.26401 v -7.16802 h -0.78934 z m 8.2667,-8.02136 c -2.26134,0 -4.17068,1.84534 -4.17068,4.03202 0,2.29334 1.856,4.12801 4.18134,4.12801 2.27201,0 4.14935,-1.84534 4.14935,-4.07468 0,-2.25067 -1.87734,-4.08535 -4.16001,-4.08535 z m 0,0.72534 c 1.84534,0 3.36001,1.52534 3.36001,3.37068 0,1.824 -1.52534,3.33867 -3.34935,3.33867 -1.87734,0 -3.38134,-1.51467 -3.38134,-3.38134 0,-1.80267 1.54667,-3.32801 3.37068,-3.32801 z m 5.44001,7.29602 h 0.78933 v -6.93335 l 4.69335,6.93335 h 0.78934 v -7.88269 h -0.78934 v 6.53869 l -4.41601,-6.53869 h -1.06667 z m 7.18936,0 h 0.832 l 1.15201,-2.65601 h 3.66934 l 1.14134,2.65601 h 0.864 l -3.39201,-7.88269 h -0.88534 z m 2.28267,-3.37068 1.54667,-3.61601 1.51468,3.61601 z m 9.2587,3.37068 h 0.78934 v -2.15467 l 1.024,-1.25867 2.62401,3.41334 h 0.992 l -3.11467,-4.04268 3.11467,-3.84001 h -0.992 l -3.64801,4.53335 v -4.53335 h -0.78934 z m 5.95201,0 h 0.83201 l 1.152,-2.65601 h 3.66935 l 1.14133,2.65601 h 0.86401 l -3.39202,-7.88269 h -0.88533 z m 2.28268,-3.37068 1.54667,-3.61601 1.51467,3.61601 z m 7.32802,3.37068 h 1.024 l 1.72801,-6.46402 1.74934,6.46402 h 1.01333 l 2.26135,-7.88269 h -0.81067 l -1.94134,6.85869 -1.88801,-6.85869 h -0.74667 l -1.888,6.85869 -1.94134,-6.85869 h -0.81067 z m 7.48803,0 h 0.832 l 1.152,-2.65601 h 3.66935 l 1.14134,2.65601 h 0.864 l -3.39201,-7.88269 h -0.88534 z m 2.28267,-3.37068 1.54667,-3.61601 1.51468,3.61601 z"
     id="text17"
     aria-label="ŚWIERZO PALONA KAWA" />
</svg>
